<svg height="320" viewBox="0 0 320 320" width="320" xmlns="http://www.w3.org/2000/svg"><g fill="none" fill-rule="evenodd"><g transform="translate(16 4)"><path d="m22.6318359 9-22.56005856.11230469s11.56005856 121.22021531 11.56005856 124.88769531c0 9.088379 11-125 11-125z" fill="#27c0d2"/><path d="m23.6318359 312-1-18 121.0000001 3.976562s-104.6386719 9.048829-120.0000001 14.023438z" fill="#27c0d2"/><path d="m22.6318359 294.133789-22.6318359-.791992 11.6318359-159.341797z" fill="#e42b31"/><g fill="#ec4545"><path d="m23.7253418.125-1.0935059 8.875 121.0000001-4z"/><path d="m287.191895 9-22.560059.11230469s11.560059 121.22021531 11.560059 124.88769531c0 9.088379 11-125 11-125z" transform="matrix(-1 0 0 1 551.82373 0)"/><path d="m144.631836 312-1-18 121 3.976562s-104.638672 9.048829-120 14.023438z" transform="matrix(-1 0 0 1 408.263672 0)"/></g><path d="m287.263672 294.133789-22.631836-.791992 11.631836-159.341797z" fill="#27c0d2" transform="matrix(-1 0 0 1 551.895508 0)"/><path d="m144.725342.125-1.093506 8.875 121-4z" fill="#27c0d2" transform="matrix(-1 0 0 1 408.263672 0)"/><path d="m143.631836 298c-4.733451-.012807-46.3680757-1.373215-46.3680757-1.373215l-74.6319244-2.626785-11-160 11-125s77.4869121-3.70445057 119.7307861-3.99232952l1.269214-.00767048 1.269214.00767048c42.243873.28787895 119.730786 3.99232952 119.730786 3.99232952l11 125-11 160-74.631924 2.626785s-41.634625 1.360408-46.368076 1.373215z" fill="#0c272b"/></g><path d="m168.72 216.84 27.93-69.3v68.46h36.33v-140.07h-38.85l-32.97 83.37-34.86-83.37h-38.64v140.07h36.33v-68.88l29.4 69.72z" fill="#fff" fill-rule="nonzero"/></g></svg>